<svg xmlns="http://www.w3.org/2000/svg" viewBox="0 0 500 150" width="500" height="150">
  <g transform="translate(20, 25)" fill="none" stroke="#000000" stroke-width="4" stroke-linecap="round" stroke-linejoin="round">
    <path d="M10 80 C 30 70, 70 70, 90 80 L 90 30 C 70 20, 30 20, 10 30 Z" />
    <path d="M90 80 C 110 70, 150 70, 170 80 L 170 30 C 150 20, 110 20, 90 30" />
    <line x1="90" y1="30" x2="90" y2="80" stroke-width="3"/>
    <path d="M90 5 L 150 30 L 90 55 L 30 30 Z" fill="#000000" stroke="none"/>
    <path d="M150 30 L 150 45 C 150 55, 120 60, 90 60" stroke-width="2"/>
    <line x1="150" y1="30" x2="165" y2="55" stroke-width="2"/>
    <circle cx="165" cy="55" r="5" fill="#000000" stroke="none"/>
  </g>

  <g font-family="Arial, Helvetica, sans-serif" fill="#000000">
    <text x="210" y="65" font-size="40" font-weight="light" letter-spacing="2">YOUR</text>
    <text x="210" y="115" font-size="40" font-weight="light" letter-spacing="2">UNIVERSITY</text>
  </g>
</svg>
